<?xml version='1.0' encoding='UTF-8'?>
<svg width="82mm" height="82mm" version="1.1" viewBox="0 0 82 82" fill_color="#0d1610" back_color="#e8e0d0" xmlns="http://www.w3.org/2000/svg"><path d="M4,4H6V6H4zM6,4H8V6H6zM8,4H10V6H8zM10,4H12V6H10zM12,4H14V6H12zM14,4H16V6H14zM16,4H18V6H16zM22,4H24V6H22zM24,4H26V6H24zM26,4H28V6H26zM30,4H32V6H30zM32,4H34V6H32zM34,4H36V6H34zM38,4H40V6H38zM42,4H44V6H42zM44,4H46V6H44zM48,4H50V6H48zM54,4H56V6H54zM56,4H58V6H56zM58,4H60V6H58zM64,4H66V6H64zM66,4H68V6H66zM68,4H70V6H68zM70,4H72V6H70zM72,4H74V6H72zM74,4H76V6H74zM76,4H78V6H76zM4,6H6V8H4zM16,6H18V8H16zM20,6H22V8H20zM30,6H32V8H30zM32,6H34V8H32zM34,6H36V8H34zM50,6H52V8H50zM56,6H58V8H56zM60,6H62V8H60zM64,6H66V8H64zM76,6H78V8H76zM4,8H6V10H4zM8,8H10V10H8zM10,8H12V10H10zM12,8H14V10H12zM16,8H18V10H16zM24,8H26V10H24zM28,8H30V10H28zM38,8H40V10H38zM42,8H44V10H42zM46,8H48V10H46zM48,8H50V10H48zM50,8H52V10H50zM52,8H54V10H52zM56,8H58V10H56zM58,8H60V10H58zM60,8H62V10H60zM64,8H66V10H64zM68,8H70V10H68zM70,8H72V10H70zM72,8H74V10H72zM76,8H78V10H76zM4,10H6V12H4zM8,10H10V12H8zM10,10H12V12H10zM12,10H14V12H12zM16,10H18V12H16zM22,10H24V12H22zM28,10H30V12H28zM30,10H32V12H30zM34,10H36V12H34zM38,10H40V12H38zM44,10H46V12H44zM48,10H50V12H48zM50,10H52V12H50zM54,10H56V12H54zM56,10H58V12H56zM58,10H60V12H58zM60,10H62V12H60zM64,10H66V12H64zM68,10H70V12H68zM70,10H72V12H70zM72,10H74V12H72zM76,10H78V12H76zM4,12H6V14H4zM8,12H10V14H8zM10,12H12V14H10zM12,12H14V14H12zM16,12H18V14H16zM26,12H28V14H26zM28,12H30V14H28zM30,12H32V14H30zM32,12H34V14H32zM34,12H36V14H34zM38,12H40V14H38zM40,12H42V14H40zM44,12H46V14H44zM46,12H48V14H46zM50,12H52V14H50zM52,12H54V14H52zM54,12H56V14H54zM56,12H58V14H56zM58,12H60V14H58zM64,12H66V14H64zM68,12H70V14H68zM70,12H72V14H70zM72,12H74V14H72zM76,12H78V14H76zM4,14H6V16H4zM16,14H18V16H16zM20,14H22V16H20zM26,14H28V16H26zM30,14H32V16H30zM32,14H34V16H32zM38,14H40V16H38zM40,14H42V16H40zM50,14H52V16H50zM52,14H54V16H52zM54,14H56V16H54zM56,14H58V16H56zM60,14H62V16H60zM64,14H66V16H64zM76,14H78V16H76zM4,16H6V18H4zM6,16H8V18H6zM8,16H10V18H8zM10,16H12V18H10zM12,16H14V18H12zM14,16H16V18H14zM16,16H18V18H16zM20,16H22V18H20zM24,16H26V18H24zM28,16H30V18H28zM32,16H34V18H32zM36,16H38V18H36zM40,16H42V18H40zM44,16H46V18H44zM48,16H50V18H48zM52,16H54V18H52zM56,16H58V18H56zM60,16H62V18H60zM64,16H66V18H64zM66,16H68V18H66zM68,16H70V18H68zM70,16H72V18H70zM72,16H74V18H72zM74,16H76V18H74zM76,16H78V18H76zM20,18H22V20H20zM24,18H26V20H24zM30,18H32V20H30zM36,18H38V20H36zM38,18H40V20H38zM40,18H42V20H40zM42,18H44V20H42zM46,18H48V20H46zM50,18H52V20H50zM56,18H58V20H56zM12,20H14V22H12zM14,20H16V22H14zM16,20H18V22H16zM18,20H20V22H18zM24,20H26V22H24zM32,20H34V22H32zM34,20H36V22H34zM46,20H48V22H46zM48,20H50V22H48zM52,20H54V22H52zM54,20H56V22H54zM56,20H58V22H56zM58,20H60V22H58zM64,20H66V22H64zM66,20H68V22H66zM74,20H76V22H74zM4,22H6V24H4zM6,22H8V24H6zM8,22H10V24H8zM10,22H12V24H10zM14,22H16V24H14zM22,22H24V24H22zM24,22H26V24H24zM28,22H30V24H28zM30,22H32V24H30zM32,22H34V24H32zM34,22H36V24H34zM38,22H40V24H38zM40,22H42V24H40zM46,22H48V24H46zM48,22H50V24H48zM50,22H52V24H50zM52,22H54V24H52zM60,22H62V24H60zM62,22H64V24H62zM64,22H66V24H64zM66,22H68V24H66zM68,22H70V24H68zM4,24H6V26H4zM8,24H10V26H8zM10,24H12V26H10zM12,24H14V26H12zM14,24H16V26H14zM16,24H18V26H16zM20,24H22V26H20zM24,24H26V26H24zM26,24H28V26H26zM32,24H34V26H32zM34,24H36V26H34zM36,24H38V26H36zM38,24H40V26H38zM42,24H44V26H42zM52,24H54V26H52zM54,24H56V26H54zM56,24H58V26H56zM60,24H62V26H60zM62,24H64V26H62zM66,24H68V26H66zM70,24H72V26H70zM72,24H74V26H72zM4,26H6V28H4zM8,26H10V28H8zM12,26H14V28H12zM14,26H16V28H14zM18,26H20V28H18zM22,26H24V28H22zM32,26H34V28H32zM34,26H36V28H34zM40,26H42V28H40zM42,26H44V28H42zM44,26H46V28H44zM56,26H58V28H56zM62,26H64V28H62zM72,26H74V28H72zM4,28H6V30H4zM16,28H18V30H16zM28,28H30V30H28zM30,28H32V30H30zM34,28H36V30H34zM38,28H40V30H38zM40,28H42V30H40zM44,28H46V30H44zM52,28H54V30H52zM58,28H60V30H58zM62,28H64V30H62zM64,28H66V30H64zM70,28H72V30H70zM72,28H74V30H72zM74,28H76V30H74zM76,28H78V30H76zM4,30H6V32H4zM8,30H10V32H8zM10,30H12V32H10zM14,30H16V32H14zM22,30H24V32H22zM24,30H26V32H24zM28,30H30V32H28zM40,30H42V32H40zM48,30H50V32H48zM52,30H54V32H52zM56,30H58V32H56zM58,30H60V32H58zM60,30H62V32H60zM62,30H64V32H62zM68,30H70V32H68zM72,30H74V32H72zM10,32H12V34H10zM16,32H18V34H16zM20,32H22V34H20zM24,32H26V34H24zM26,32H28V34H26zM30,32H32V34H30zM32,32H34V34H32zM38,32H40V34H38zM46,32H48V34H46zM48,32H50V34H48zM52,32H54V34H52zM56,32H58V34H56zM58,32H60V34H58zM60,32H62V34H60zM62,32H64V34H62zM64,32H66V34H64zM68,32H70V34H68zM70,32H72V34H70zM72,32H74V34H72zM6,34H8V36H6zM18,34H20V36H18zM22,34H24V36H22zM24,34H26V36H24zM26,34H28V36H26zM28,34H30V36H28zM36,34H38V36H36zM38,34H40V36H38zM40,34H42V36H40zM42,34H44V36H42zM48,34H50V36H48zM56,34H58V36H56zM60,34H62V36H60zM62,34H64V36H62zM64,34H66V36H64zM66,34H68V36H66zM68,34H70V36H68zM72,34H74V36H72zM76,34H78V36H76zM6,36H8V38H6zM10,36H12V38H10zM16,36H18V38H16zM18,36H20V38H18zM20,36H22V38H20zM22,36H24V38H22zM26,36H28V38H26zM32,36H34V38H32zM34,36H36V38H34zM36,36H38V38H36zM40,36H42V38H40zM42,36H44V38H42zM46,36H48V38H46zM48,36H50V38H48zM50,36H52V38H50zM52,36H54V38H52zM62,36H64V38H62zM64,36H66V38H64zM70,36H72V38H70zM72,36H74V38H72zM74,36H76V38H74zM6,38H8V40H6zM8,38H10V40H8zM14,38H16V40H14zM18,38H20V40H18zM20,38H22V40H20zM24,38H26V40H24zM34,38H36V40H34zM44,38H46V40H44zM46,38H48V40H46zM48,38H50V40H48zM50,38H52V40H50zM54,38H56V40H54zM58,38H60V40H58zM60,38H62V40H60zM68,38H70V40H68zM70,38H72V40H70zM72,38H74V40H72zM4,40H6V42H4zM6,40H8V42H6zM16,40H18V42H16zM24,40H26V42H24zM28,40H30V42H28zM32,40H34V42H32zM36,40H38V42H36zM40,40H42V42H40zM42,40H44V42H42zM46,40H48V42H46zM48,40H50V42H48zM50,40H52V42H50zM52,40H54V42H52zM56,40H58V42H56zM58,40H60V42H58zM60,40H62V42H60zM66,40H68V42H66zM4,42H6V44H4zM6,42H8V44H6zM8,42H10V44H8zM10,42H12V44H10zM12,42H14V44H12zM20,42H22V44H20zM22,42H24V44H22zM28,42H30V44H28zM30,42H32V44H30zM34,42H36V44H34zM40,42H42V44H40zM42,42H44V44H42zM48,42H50V44H48zM52,42H54V44H52zM56,42H58V44H56zM58,42H60V44H58zM62,42H64V44H62zM64,42H66V44H64zM66,42H68V44H66zM68,42H70V44H68zM72,42H74V44H72zM76,42H78V44H76zM4,44H6V46H4zM10,44H12V46H10zM12,44H14V46H12zM14,44H16V46H14zM16,44H18V46H16zM20,44H22V46H20zM22,44H24V46H22zM26,44H28V46H26zM34,44H36V46H34zM36,44H38V46H36zM46,44H48V46H46zM48,44H50V46H48zM62,44H64V46H62zM64,44H66V46H64zM72,44H74V46H72zM76,44H78V46H76zM20,46H22V48H20zM26,46H28V48H26zM28,46H30V48H28zM30,46H32V48H30zM32,46H34V48H32zM34,46H36V48H34zM36,46H38V48H36zM38,46H40V48H38zM42,46H44V48H42zM50,46H52V48H50zM52,46H54V48H52zM56,46H58V48H56zM58,46H60V48H58zM68,46H70V48H68zM70,46H72V48H70zM74,46H76V48H74zM4,48H6V50H4zM6,48H8V50H6zM8,48H10V50H8zM10,48H12V50H10zM14,48H16V50H14zM16,48H18V50H16zM18,48H20V50H18zM22,48H24V50H22zM24,48H26V50H24zM32,48H34V50H32zM34,48H36V50H34zM36,48H38V50H36zM38,48H40V50H38zM44,48H46V50H44zM54,48H56V50H54zM56,48H58V50H56zM58,48H60V50H58zM60,48H62V50H60zM64,48H66V50H64zM4,50H6V52H4zM10,50H12V52H10zM18,50H20V52H18zM28,50H30V52H28zM30,50H32V52H30zM32,50H34V52H32zM34,50H36V52H34zM36,50H38V52H36zM40,50H42V52H40zM42,50H44V52H42zM44,50H46V52H44zM46,50H48V52H46zM50,50H52V52H50zM52,50H54V52H52zM54,50H56V52H54zM60,50H62V52H60zM62,50H64V52H62zM64,50H66V52H64zM66,50H68V52H66zM72,50H74V52H72zM4,52H6V54H4zM6,52H8V54H6zM14,52H16V54H14zM16,52H18V54H16zM18,52H20V54H18zM24,52H26V54H24zM26,52H28V54H26zM28,52H30V54H28zM34,52H36V54H34zM36,52H38V54H36zM40,52H42V54H40zM46,52H48V54H46zM48,52H50V54H48zM52,52H54V54H52zM54,52H56V54H54zM58,52H60V54H58zM60,52H62V54H60zM62,52H64V54H62zM66,52H68V54H66zM68,52H70V54H68zM72,52H74V54H72zM76,52H78V54H76zM4,54H6V56H4zM6,54H8V56H6zM8,54H10V56H8zM18,54H20V56H18zM24,54H26V56H24zM40,54H42V56H40zM42,54H44V56H42zM44,54H46V56H44zM48,54H50V56H48zM54,54H56V56H54zM56,54H58V56H56zM64,54H66V56H64zM74,54H76V56H74zM8,56H10V58H8zM10,56H12V58H10zM16,56H18V58H16zM20,56H22V58H20zM26,56H28V58H26zM28,56H30V58H28zM34,56H36V58H34zM38,56H40V58H38zM40,56H42V58H40zM44,56H46V58H44zM48,56H50V58H48zM54,56H56V58H54zM58,56H60V58H58zM62,56H64V58H62zM68,56H70V58H68zM70,56H72V58H70zM72,56H74V58H72zM12,58H14V60H12zM14,58H16V60H14zM22,58H24V60H22zM26,58H28V60H26zM28,58H30V60H28zM30,58H32V60H30zM36,58H38V60H36zM42,58H44V60H42zM44,58H46V60H44zM46,58H48V60H46zM52,58H54V60H52zM58,58H60V60H58zM60,58H62V60H60zM64,58H66V60H64zM66,58H68V60H66zM68,58H70V60H68zM70,58H72V60H70zM72,58H74V60H72zM76,58H78V60H76zM4,60H6V62H4zM6,60H8V62H6zM8,60H10V62H8zM10,60H12V62H10zM12,60H14V62H12zM16,60H18V62H16zM20,60H22V62H20zM24,60H26V62H24zM26,60H28V62H26zM28,60H30V62H28zM30,60H32V62H30zM32,60H34V62H32zM36,60H38V62H36zM42,60H44V62H42zM48,60H50V62H48zM50,60H52V62H50zM52,60H54V62H52zM60,60H62V62H60zM62,60H64V62H62zM64,60H66V62H64zM66,60H68V62H66zM68,60H70V62H68zM74,60H76V62H74zM20,62H22V64H20zM22,62H24V64H22zM26,62H28V64H26zM28,62H30V64H28zM30,62H32V64H30zM34,62H36V64H34zM36,62H38V64H36zM40,62H42V64H40zM42,62H44V64H42zM46,62H48V64H46zM50,62H52V64H50zM54,62H56V64H54zM56,62H58V64H56zM58,62H60V64H58zM60,62H62V64H60zM68,62H70V64H68zM70,62H72V64H70zM4,64H6V66H4zM6,64H8V66H6zM8,64H10V66H8zM10,64H12V66H10zM12,64H14V66H12zM14,64H16V66H14zM16,64H18V66H16zM20,64H22V66H20zM24,64H26V66H24zM26,64H28V66H26zM40,64H42V66H40zM48,64H50V66H48zM50,64H52V66H50zM54,64H56V66H54zM60,64H62V66H60zM64,64H66V66H64zM68,64H70V66H68zM70,64H72V66H70zM72,64H74V66H72zM4,66H6V68H4zM16,66H18V68H16zM20,66H22V68H20zM22,66H24V68H22zM24,66H26V68H24zM32,66H34V68H32zM34,66H36V68H34zM38,66H40V68H38zM44,66H46V68H44zM52,66H54V68H52zM60,66H62V68H60zM68,66H70V68H68zM72,66H74V68H72zM74,66H76V68H74zM4,68H6V70H4zM8,68H10V70H8zM10,68H12V70H10zM12,68H14V70H12zM16,68H18V70H16zM20,68H22V70H20zM22,68H24V70H22zM26,68H28V70H26zM28,68H30V70H28zM32,68H34V70H32zM34,68H36V70H34zM42,68H44V70H42zM48,68H50V70H48zM50,68H52V70H50zM60,68H62V70H60zM62,68H64V70H62zM64,68H66V70H64zM66,68H68V70H66zM68,68H70V70H68zM70,68H72V70H70zM72,68H74V70H72zM74,68H76V70H74zM4,70H6V72H4zM8,70H10V72H8zM10,70H12V72H10zM12,70H14V72H12zM16,70H18V72H16zM22,70H24V72H22zM36,70H38V72H36zM40,70H42V72H40zM42,70H44V72H42zM46,70H48V72H46zM52,70H54V72H52zM56,70H58V72H56zM58,70H60V72H58zM64,70H66V72H64zM66,70H68V72H66zM70,70H72V72H70zM72,70H74V72H72zM4,72H6V74H4zM8,72H10V74H8zM10,72H12V74H10zM12,72H14V74H12zM16,72H18V74H16zM24,72H26V74H24zM26,72H28V74H26zM28,72H30V74H28zM32,72H34V74H32zM34,72H36V74H34zM40,72H42V74H40zM42,72H44V74H42zM46,72H48V74H46zM48,72H50V74H48zM50,72H52V74H50zM52,72H54V74H52zM56,72H58V74H56zM60,72H62V74H60zM64,72H66V74H64zM72,72H74V74H72zM74,72H76V74H74zM4,74H6V76H4zM16,74H18V76H16zM22,74H24V76H22zM26,74H28V76H26zM28,74H30V76H28zM30,74H32V76H30zM32,74H34V76H32zM36,74H38V76H36zM38,74H40V76H38zM44,74H46V76H44zM48,74H50V76H48zM50,74H52V76H50zM66,74H68V76H66zM70,74H72V76H70zM72,74H74V76H72zM74,74H76V76H74zM4,76H6V78H4zM6,76H8V78H6zM8,76H10V78H8zM10,76H12V78H10zM12,76H14V78H12zM14,76H16V78H14zM16,76H18V78H16zM22,76H24V78H22zM24,76H26V78H24zM30,76H32V78H30zM34,76H36V78H34zM40,76H42V78H40zM46,76H48V78H46zM48,76H50V78H48zM52,76H54V78H52zM56,76H58V78H56zM58,76H60V78H58zM62,76H64V78H62zM64,76H66V78H64zM68,76H70V78H68zM72,76H74V78H72zM74,76H76V78H74zM76,76H78V78H76z" id="qr-path" fill="#000000" fill-opacity="1" fill-rule="nonzero" stroke="none" /></svg>